<svg xmlns="http://www.w3.org/2000/svg" width="512" height="512" viewBox="0 0 512 512" fill="none"><path d="M58.8096 206.355C48.1581 309.472 68.8981 379.98 89.9248 409.006C93.8367 414.373 98.0351 418.975 102.468 422.695C103.839 423.822 105.105 424.81 106.338 425.703H106.38C140.089 449.649 227.268 461.318 309.153 452.943L319.857 451.859V491.376L311.141 492.269C293.452 494.054 274.923 495 256.065 495C181.207 495 116.756 480.981 83.7061 457.557C57.5343 439.063 24.9091 395.742 18.127 294.602C16.1923 265.768 16.7564 234.573 19.7754 204.421L20.626 195.674H59.8936L58.8096 206.355ZM380.506 160.209L160.117 380.111L131.577 351.635L351.966 131.732L380.506 160.209ZM231.27 17.9599C407.169 8.1287 459.077 76.0966 474.448 117.494V117.547C489.107 157.244 500.047 236.373 492.595 310.835L491.744 319.539H452.008L453.135 308.815C454.878 292.915 455.729 276.026 455.729 258.532C455.729 210.024 448.851 161.155 437.721 131.045C434.181 121.543 428.759 112.648 421.69 104.655C417.587 100.043 412.878 95.6744 407.69 91.7207C377.001 68.1045 329.047 56.1582 265.074 56.1582C254.933 56.1582 244.324 56.4343 233.439 57.0507C218.918 57.8904 207.086 58.8784 196.243 60.1113L185.442 61.3339V21.998L194.074 21.0097C205.523 19.7024 217.737 18.7145 231.27 17.9599Z" fill="#1F1F1F"></path></svg>