<svg xmlns="http://www.w3.org/2000/svg" width="180" height="17" viewBox="0 0 180 17" fill="none"><g clip-path="url(#clip0_82_729)"><path d="M177.103 0.00870845C178.798 -0.0854074 179.299 0.564701 179.445 0.95988C179.599 1.37389 179.674 2.05882 179.635 2.66301C179.572 3.64704 179.258 4.06611 179.007 4.24406C178.672 4.48204 178.008 4.59953 177.342 4.59953C176.676 4.59948 176.012 4.482 175.678 4.24406C174.895 3.68843 174.944 1.79154 175.231 0.985271C175.548 0.0959428 176.598 0.0353883 177.103 0.00870845ZM177.118 0.329998C176.314 0.375529 175.736 0.522075 175.532 1.09367C175.28 1.80051 175.247 3.54639 175.862 3.98429C176.117 4.16532 176.698 4.28215 177.341 4.28215C177.985 4.28209 178.565 4.16525 178.819 3.98429C179.09 3.7922 179.27 3.30433 179.313 2.64445C179.355 1.99281 179.258 1.38479 179.143 1.07316C179.056 0.838741 178.716 0.322213 177.421 0.322185V0.320232C177.325 0.320232 177.225 0.323599 177.118 0.329998ZM177.224 0.936443C177.655 0.913001 178.408 0.955748 178.616 1.51945C178.643 1.5933 178.667 1.68122 178.686 1.78019L178.37 1.83976C178.355 1.75813 178.336 1.68528 178.316 1.62883C178.173 1.24633 177.517 1.23978 177.242 1.25578C176.817 1.27926 176.51 1.35525 176.409 1.64054C176.272 2.02765 176.26 2.97021 176.57 3.1923C176.861 3.39685 177.869 3.39685 178.159 3.1923C178.251 3.12745 178.323 2.98761 178.367 2.78801L178.681 2.85734C178.618 3.13898 178.506 3.34092 178.345 3.45402C178.143 3.59721 177.754 3.66784 177.364 3.66789V3.66984C176.975 3.66984 176.585 3.59911 176.383 3.45597C175.877 3.09716 175.958 1.9463 176.105 1.53508C176.299 0.988672 176.924 0.953874 177.224 0.936443Z" fill="#F8F8F8"></path><path d="M24.0972 0.385254V14.2613H32.3879V16.0122H22.0148V0.385254H24.099H24.0972Z" fill="#F8F8F8"></path><path d="M35.2167 16.014V0.38562H37.3009V16.014H35.2167Z" fill="#F8F8F8"></path><path d="M43.9239 0.385254L52.1705 13.0582H52.2146V0.385254H54.1882V16.0136H51.9069L43.7265 3.47122H43.6824V16.0136H41.7088V0.385254H43.9239Z" fill="#F8F8F8"></path><path d="M60.57 0.385254V8.17755L68.5088 0.385254H71.2067L64.6057 6.68952L71.4699 16.0136H68.8386L63.1793 8.1128L60.57 10.5421V16.0136H58.4857V0.385254H60.57Z" fill="#F8F8F8"></path><path d="M81.1412 16.014V0.38562H83.2254V16.014H81.1412Z" fill="#F8F8F8"></path><path d="M89.8488 0.385254L98.0953 13.0582H98.1394V0.385254H100.113V16.0136H97.8317L89.6513 3.47122H89.6072V16.0136H87.6336V0.385254H89.8488Z" fill="#F8F8F8"></path><path d="M108.205 16.0122L102.7 0.385254H104.937L109.412 13.9336H109.456L113.974 0.385254H116.145L110.574 16.0136H108.206L108.205 16.0122Z" fill="#F8F8F8"></path><path d="M129.545 0.385254V2.13616H120.816V7.10502H128.952V8.85593H120.816V14.2627H129.61V16.0136H118.731V0.385254H129.545Z" fill="#F8F8F8"></path><path d="M140.895 2.51893C140.2 2.01522 139.312 1.76336 138.23 1.76336C137.791 1.76336 137.361 1.80747 136.936 1.89391C136.512 1.98213 136.137 2.12691 135.807 2.33146C135.477 2.53636 135.215 2.81027 135.018 3.15178C134.821 3.49506 134.721 3.92193 134.721 4.43205C134.721 4.91371 134.863 5.30431 135.149 5.60348C135.434 5.90265 135.815 6.14668 136.289 6.33699C136.764 6.52767 137.302 6.68348 137.902 6.80798C138.501 6.93213 139.112 7.06767 139.733 7.21245C140.355 7.35901 140.966 7.53047 141.565 7.72755C142.165 7.92427 142.701 8.19035 143.178 8.52581C143.652 8.86091 144.033 9.28458 144.318 9.7947C144.604 10.3048 144.746 10.9473 144.746 11.7203C144.746 12.5516 144.56 13.2634 144.187 13.8536C143.815 14.4441 143.335 14.9258 142.75 15.2989C142.165 15.6707 141.512 15.9414 140.787 16.1082C140.063 16.2754 139.344 16.3604 138.628 16.3604C137.75 16.3604 136.921 16.2516 136.138 16.0328C135.355 15.814 134.669 15.4818 134.076 15.036C133.484 14.5907 133.016 14.0222 132.672 13.3292C132.328 12.6366 132.156 11.8163 132.156 10.8669H134.129C134.129 11.5236 134.257 12.0888 134.513 12.5626C134.768 13.0365 135.105 13.4271 135.521 13.7341C135.938 14.0411 136.424 14.2662 136.979 14.4128C137.534 14.559 138.105 14.6316 138.689 14.6316C139.156 14.6316 139.628 14.5875 140.104 14.5007C140.579 14.4128 141.007 14.263 141.387 14.0521C141.767 13.8411 142.073 13.553 142.308 13.1877C142.542 12.8223 142.658 12.3563 142.658 11.7864C142.658 11.2464 142.517 10.8085 142.231 10.4734C141.945 10.138 141.565 9.86407 141.09 9.65312C140.616 9.44217 140.077 9.27035 139.478 9.13802C138.878 9.00747 138.268 8.87194 137.646 8.73356C137.025 8.59482 136.414 8.43439 135.815 8.25154C135.215 8.06905 134.677 7.82822 134.202 7.52905C133.727 7.22988 133.347 6.84427 133.062 6.36865C132.776 5.89482 132.634 5.29968 132.634 4.58466C132.634 3.79743 132.795 3.11407 133.117 2.53778C133.439 1.9615 133.866 1.48767 134.399 1.1145C134.933 0.74312 135.54 0.466006 136.22 0.28316C136.9 0.10067 137.597 0.00924683 138.315 0.00924683C139.12 0.00924683 139.865 0.103871 140.552 0.294188C141.239 0.48486 141.843 0.784029 142.362 1.1917C142.881 1.60114 143.29 2.11446 143.589 2.73486C143.889 3.3549 144.053 4.09518 144.083 4.9564H142.11C141.993 3.83193 141.587 3.0198 140.892 2.51573L140.895 2.51893Z" fill="#F8F8F8"></path><path d="M146.519 2.13616V0.385254H159.043V2.13616H153.822V16.0122H151.738V2.13616H146.517H146.519Z" fill="#F8F8F8"></path><path d="M169.537 2.51893C168.843 2.01522 167.955 1.76336 166.872 1.76336C166.434 1.76336 166.003 1.80747 165.579 1.89391C165.154 1.98213 164.779 2.12691 164.449 2.33146C164.119 2.53636 163.858 2.81027 163.66 3.15178C163.463 3.49506 163.364 3.92193 163.364 4.43205C163.364 4.91371 163.506 5.30431 163.791 5.60348C164.077 5.90265 164.457 6.14668 164.932 6.33699C165.407 6.52767 165.945 6.68348 166.544 6.80798C167.144 6.93213 167.754 7.06767 168.376 7.21245C168.998 7.35901 169.608 7.53047 170.208 7.72755C170.807 7.92427 171.344 8.19035 171.82 8.52581C172.295 8.86091 172.675 9.28458 172.961 9.7947C173.246 10.3048 173.388 10.9473 173.388 11.7203C173.388 12.5516 173.202 13.2634 172.83 13.8536C172.457 14.4441 171.978 14.9258 171.392 15.2989C170.807 15.6707 170.154 15.9414 169.43 16.1082C168.706 16.2754 167.986 16.3604 167.27 16.3604C166.393 16.3604 165.563 16.2516 164.78 16.0328C163.998 15.814 163.312 15.4818 162.718 15.036C162.127 14.5907 161.658 14.0222 161.314 13.3292C160.97 12.6366 160.798 11.8163 160.798 10.8669H162.772C162.772 11.5236 162.9 12.0888 163.155 12.5626C163.411 13.0365 163.747 13.4271 164.164 13.7341C164.58 14.0411 165.066 14.2662 165.621 14.4128C166.177 14.559 166.748 14.6316 167.331 14.6316C167.798 14.6316 168.27 14.5875 168.747 14.5007C169.222 14.4128 169.649 14.263 170.029 14.0521C170.409 13.8411 170.716 13.553 170.951 13.1877C171.184 12.8223 171.301 12.3563 171.301 11.7864C171.301 11.2464 171.159 10.8085 170.873 10.4734C170.588 10.138 170.208 9.86407 169.733 9.65312C169.258 9.44217 168.72 9.27035 168.12 9.13802C167.521 9.00747 166.91 8.87194 166.289 8.73356C165.667 8.59482 165.056 8.43439 164.457 8.25154C163.858 8.06905 163.319 7.82822 162.844 7.52905C162.37 7.22988 161.989 6.84427 161.704 6.36865C161.418 5.89482 161.276 5.29968 161.276 4.58466C161.276 3.79743 161.437 3.11407 161.759 2.53778C162.081 1.9615 162.509 1.48767 163.042 1.1145C163.575 0.74312 164.182 0.466006 164.863 0.28316C165.542 0.10067 166.24 0.00924683 166.957 0.00924683C167.762 0.00924683 168.507 0.103871 169.195 0.294188C169.881 0.48486 170.485 0.784029 171.004 1.1917C171.523 1.60114 171.932 2.11446 172.232 2.73486C172.531 3.3549 172.696 4.09518 172.726 4.9564H170.752C170.635 3.83193 170.23 3.0198 169.534 2.51573L169.537 2.51893Z" fill="#F8F8F8"></path><path d="M1.39925 6.35145C1.04288 9.80242 1.73669 12.1621 2.44026 13.1337C2.57113 13.3133 2.7119 13.4672 2.86019 13.5917C2.90605 13.6294 2.94785 13.6634 2.98909 13.6933H2.99105C4.11922 14.4946 7.03631 14.8846 9.7762 14.6044L10.1346 14.5683V15.8905L9.84261 15.9208C9.25081 15.9805 8.63074 16.0126 7.99983 16.0126C5.49485 16.0126 3.3382 15.5427 2.23226 14.7587C1.35646 14.1397 0.264871 12.6896 0.0379209 9.30458C-0.0268016 8.33955 -0.0084103 7.29514 0.0926084 6.28602L0.120929 5.99403H1.43538L1.39925 6.35145ZM12.1649 4.80653L4.78987 12.1669L3.8348 11.2138L11.2098 3.85341L12.1649 4.80653ZM7.17073 0.0457899C13.0568 -0.283178 14.794 1.99129 15.3084 3.37684V3.3788C15.799 4.70751 16.1652 7.35637 15.9159 9.84852L15.8866 10.1395H14.5575L14.5946 9.78016C14.6529 9.24808 14.6815 8.68297 14.6815 8.09755C14.6815 6.47417 14.4513 4.83876 14.0789 3.83095C13.9605 3.51294 13.7793 3.21466 13.5428 2.94716C13.4055 2.79278 13.2476 2.64686 13.0741 2.51454C12.0471 1.72411 10.4424 1.32411 8.30159 1.32411C7.96225 1.32411 7.60724 1.33375 7.243 1.35438C6.75709 1.38249 6.36072 1.41468 5.99788 1.45595L5.63655 1.49696V0.180555L5.92562 0.147352C6.30874 0.103597 6.71789 0.0710468 7.17073 0.0457899Z" fill="#F8F8F8"></path></g><defs><clipPath id="clip0_82_729"><rect width="180" height="16.3636" fill="white"></rect></clipPath></defs></svg>