<svg xmlns="http://www.w3.org/2000/svg" width="1400" height="512" viewBox="0 0 1400 512" fill="none"><g clip-path="url(#clip0_86_7)"><g opacity="0.4"><mask id="path-1-inside-1_86_7" fill="white"><path d="M-148.23 330.747C-159.127 436.255 -137.91 508.398 -116.399 538.097C-112.397 543.589 -108.102 548.298 -103.567 552.104C-102.165 553.256 -100.871 554.268 -99.6093 555.181H-99.5654C-65.0814 579.682 24.1026 591.623 107.871 583.054L118.822 581.945V622.377L109.905 623.29C91.8096 625.117 72.8545 626.085 53.5626 626.085C-23.0177 626.085 -88.9518 611.742 -122.762 587.774C-149.535 568.852 -182.91 524.525 -189.849 421.04C-191.828 391.537 -191.251 359.62 -188.163 328.768L-187.293 319.818H-147.121L-148.23 330.747ZM180.873 283.535L-44.5849 508.536L-73.7812 479.399L151.677 254.397L180.873 283.535ZM28.2051 137.983C208.15 127.924 261.252 197.468 276.977 239.826V239.879C291.973 280.497 303.163 361.46 295.54 437.649L294.67 446.556H254.021L255.173 435.583C256.956 419.315 257.826 402.034 257.826 384.134C257.826 334.501 250.79 284.499 239.404 253.691C235.783 243.969 230.237 234.867 223.005 226.689C218.807 221.969 213.99 217.499 208.683 213.453C177.287 189.29 128.231 177.067 62.7862 177.067C52.4117 177.067 41.5586 177.349 30.4229 177.98C15.568 178.839 3.46441 179.851 -7.62786 181.113L-18.6767 182.363V142.116L-9.84661 141.104C1.86557 139.766 14.3615 138.755 28.2051 137.983Z"></path></mask><path d="M-148.23 330.747L-147.56 330.817L-147.56 330.815L-148.23 330.747ZM-116.399 538.097L-116.945 538.492L-116.944 538.494L-116.399 538.097ZM-103.567 552.104L-104.001 552.62L-103.995 552.624L-103.567 552.104ZM-99.6093 555.181L-100.004 555.727L-99.8277 555.855H-99.6093V555.181ZM-99.5654 555.181L-99.1751 554.632L-99.3504 554.507H-99.5654V555.181ZM107.871 583.054L107.803 582.384L107.803 582.384L107.871 583.054ZM118.822 581.945H119.496V581.199L118.754 581.274L118.822 581.945ZM118.822 622.377L118.891 623.048L119.496 622.986V622.377H118.822ZM109.905 623.29L109.973 623.961L109.974 623.961L109.905 623.29ZM53.5626 626.085L53.5626 626.759H53.5626V626.085ZM-122.762 587.774L-122.372 587.224L-122.373 587.224L-122.762 587.774ZM-189.849 421.04L-189.176 420.995L-189.176 420.995L-189.849 421.04ZM-188.163 328.768L-187.493 328.835L-187.492 328.833L-188.163 328.768ZM-187.293 319.818V319.144H-187.904L-187.964 319.753L-187.293 319.818ZM-147.121 319.818L-146.451 319.886L-146.375 319.144H-147.121V319.818ZM180.873 283.535L181.349 284.011L181.827 283.535L181.349 283.058L180.873 283.535ZM-44.5849 508.536L-45.0609 509.013L-44.5849 509.488L-44.1089 509.013L-44.5849 508.536ZM-73.7812 479.399L-74.2571 478.922L-74.735 479.399L-74.2571 479.876L-73.7812 479.399ZM151.677 254.397L152.153 253.92L151.677 253.445L151.201 253.92L151.677 254.397ZM28.2051 137.983L28.2427 138.655L28.2428 138.655L28.2051 137.983ZM276.977 239.826H277.65V239.704L277.608 239.591L276.977 239.826ZM276.977 239.879H276.303V240L276.345 240.113L276.977 239.879ZM295.54 437.649L294.87 437.582L294.87 437.583L295.54 437.649ZM294.67 446.556V447.23H295.281L295.341 446.622L294.67 446.556ZM254.021 446.556L253.35 446.486L253.272 447.23H254.021V446.556ZM255.173 435.583L254.503 435.51L254.503 435.513L255.173 435.583ZM257.826 384.134L258.5 384.134V384.134L257.826 384.134ZM239.404 253.691L240.036 253.457L240.036 253.456L239.404 253.691ZM223.005 226.689L223.51 226.242L223.508 226.241L223.005 226.689ZM208.683 213.453L208.272 213.987L208.274 213.989L208.683 213.453ZM62.7862 177.067L62.7862 176.393L62.7862 176.393L62.7862 177.067ZM30.4229 177.98L30.3848 177.307L30.384 177.307L30.4229 177.98ZM-7.62786 181.113L-7.55211 181.782L-7.55172 181.782L-7.62786 181.113ZM-18.6767 182.363H-19.3505V183.117L-18.6009 183.032L-18.6767 182.363ZM-18.6767 142.116L-18.7534 141.446L-19.3505 141.515V142.116H-18.6767ZM-9.84661 141.104L-9.92306 140.434L-9.92331 140.434L-9.84661 141.104ZM-148.23 330.747L-148.901 330.678C-159.806 436.272 -138.59 508.607 -116.945 538.492L-116.399 538.097L-115.854 537.702C-137.229 508.189 -158.448 436.237 -147.56 330.817L-148.23 330.747ZM-116.399 538.097L-116.944 538.494C-112.915 544.022 -108.584 548.773 -104 552.62L-103.567 552.104L-103.134 551.588C-107.62 547.822 -111.879 543.155 -115.855 537.7L-116.399 538.097ZM-103.567 552.104L-103.995 552.624C-102.585 553.783 -101.28 554.803 -100.004 555.727L-99.6093 555.181L-99.2141 554.635C-100.462 553.732 -101.744 552.73 -103.14 551.583L-103.567 552.104ZM-99.6093 555.181V555.855H-99.5654V555.181V554.507H-99.6093V555.181ZM-99.5654 555.181L-99.9556 555.73C-82.5743 568.08 -51.5199 577.207 -14.4185 582.187C22.7128 587.171 66.004 588.014 107.94 583.724L107.871 583.054L107.803 582.384C65.9697 586.663 22.7847 585.821 -14.2392 580.851C-51.2928 575.877 -82.0724 566.783 -99.1751 554.632L-99.5654 555.181ZM107.871 583.054L107.939 583.724L118.89 582.615L118.822 581.945L118.754 581.274L107.803 582.384L107.871 583.054ZM118.822 581.945H118.149V622.377H118.822H119.496V581.945H118.822ZM118.822 622.377L118.754 621.707L109.837 622.62L109.905 623.29L109.974 623.961L118.891 623.048L118.822 622.377ZM109.905 623.29L109.838 622.62C91.7648 624.445 72.8322 625.411 53.5626 625.411V626.085V626.759C72.8768 626.759 91.8545 625.79 109.973 623.961L109.905 623.29ZM53.5626 626.085L53.5626 625.411C15.3121 625.411 -20.2677 621.829 -50.4954 615.259C-80.7334 608.687 -105.571 599.135 -122.372 587.224L-122.762 587.774L-123.151 588.323C-106.143 600.381 -81.1081 609.984 -50.7816 616.576C-20.4447 623.17 15.2328 626.759 53.5626 626.759L53.5626 626.085ZM-122.762 587.774L-122.373 587.224C-148.93 568.454 -182.247 524.349 -189.176 420.995L-189.849 421.04L-190.521 421.085C-183.574 524.702 -150.141 569.249 -123.151 588.324L-122.762 587.774ZM-189.849 421.04L-189.176 420.995C-191.153 391.531 -190.577 359.651 -187.493 328.835L-188.163 328.768L-188.833 328.701C-191.925 359.588 -192.503 391.543 -190.521 421.085L-189.849 421.04ZM-188.163 328.768L-187.492 328.833L-186.622 319.883L-187.293 319.818L-187.964 319.753L-188.834 328.703L-188.163 328.768ZM-187.293 319.818V320.492H-147.121V319.818V319.144H-187.293V319.818ZM-147.121 319.818L-147.791 319.75L-148.901 330.679L-148.23 330.747L-147.56 330.815L-146.451 319.886L-147.121 319.818ZM180.873 283.535L180.397 283.058L-45.0609 508.06L-44.5849 508.536L-44.1089 509.013L181.349 284.011L180.873 283.535ZM-44.5849 508.536L-44.1089 508.06L-73.3052 478.922L-73.7812 479.399L-74.2571 479.876L-45.0609 509.013L-44.5849 508.536ZM-73.7812 479.399L-73.3052 479.876L152.153 254.874L151.677 254.397L151.201 253.92L-74.2571 478.922L-73.7812 479.399ZM151.677 254.397L151.201 254.874L180.397 284.011L180.873 283.535L181.349 283.058L152.153 253.92L151.677 254.397ZM28.2051 137.983L28.2428 138.655C118.13 133.631 176.252 148.493 213.841 169.834C251.418 191.168 268.53 219.009 276.345 240.06L276.977 239.826L277.608 239.591C269.699 218.285 252.397 190.174 214.506 168.662C176.627 147.156 118.226 132.276 28.1675 137.31L28.2051 137.983ZM276.977 239.826H276.303V239.879H276.977H277.65V239.826H276.977ZM276.977 239.879L276.345 240.113C291.299 280.617 302.485 361.475 294.87 437.582L295.54 437.649L296.211 437.716C303.842 361.445 292.647 280.376 277.609 239.646L276.977 239.879ZM295.54 437.649L294.87 437.583L293.999 446.49L294.67 446.556L295.341 446.622L296.211 437.714L295.54 437.649ZM294.67 446.556V445.882H254.021V446.556V447.23H294.67V446.556ZM254.021 446.556L254.691 446.626L255.843 435.654L255.173 435.583L254.503 435.513L253.35 446.486L254.021 446.556ZM255.173 435.583L255.843 435.657C257.629 419.361 258.5 402.055 258.5 384.134H257.826H257.152C257.152 402.013 256.284 419.268 254.503 435.51L255.173 435.583ZM257.826 384.134L258.5 384.134C258.5 334.459 251.46 284.369 240.036 253.457L239.404 253.691L238.772 253.924C250.12 284.63 257.152 334.544 257.152 384.134L257.826 384.134ZM239.404 253.691L240.036 253.456C236.384 243.651 230.793 234.478 223.51 226.242L223.005 226.689L222.5 227.135C229.681 235.255 235.182 244.286 238.773 253.926L239.404 253.691ZM223.005 226.689L223.508 226.241C219.281 221.488 214.432 216.989 209.091 212.918L208.683 213.453L208.274 213.989C213.547 218.009 218.333 222.45 222.501 227.137L223.005 226.689ZM208.683 213.453L209.094 212.919C177.525 188.623 128.29 176.393 62.7862 176.393V177.067V177.741C128.171 177.741 177.049 189.957 208.272 213.987L208.683 213.453ZM62.7862 177.067L62.7862 176.393C52.3996 176.393 41.5337 176.676 30.3848 177.307L30.4229 177.98L30.461 178.653C41.5834 178.023 52.4239 177.741 62.7862 177.741L62.7862 177.067ZM30.4229 177.98L30.384 177.307C15.5195 178.167 3.40322 179.18 -7.704 180.443L-7.62786 181.113L-7.55172 181.782C3.5256 180.522 15.6165 179.511 30.4618 178.652L30.4229 177.98ZM-7.62786 181.113L-7.70361 180.443L-18.7524 181.693L-18.6767 182.363L-18.6009 183.032L-7.55211 181.782L-7.62786 181.113ZM-18.6767 182.363H-18.0029V142.116H-18.6767H-19.3505V182.363H-18.6767ZM-18.6767 142.116L-18.6 142.785L-9.76991 141.773L-9.84661 141.104L-9.92331 140.434L-18.7534 141.446L-18.6767 142.116ZM-9.84661 141.104L-9.77016 141.773C1.92643 140.437 14.4091 139.427 28.2427 138.655L28.2051 137.983L28.1676 137.31C14.3139 138.083 1.80471 139.095 -9.92306 140.434L-9.84661 141.104Z" fill="#C8CDD1" mask="url(#path-1-inside-1_86_7)"></path></g></g><defs><clipPath id="clip0_86_7"><rect width="1400" height="512" fill="white"></rect></clipPath></defs></svg>